PathFileType	4	(X/Y/Z)	C:/Users/beibeiliu/ov580/test_trc/User3\sequence.15_training_dense_left.trc
DataRate	CameraRate	NumFrames	NumMarkers	Units	OrigDataRate	OrigDataStartFrame	OrigNumFrames
120	120	15	19	mm	120	1	234
Frame#	Time	ThumbCMC			ThumbMCP			ThumbIP			ThumbTip			IndexMCP			IndexPIP			IndexTip			MiddleMCP			MiddlePIP			MiddleTip			RingMCP			RingPIP			RingTip			PinkyMCP			PinkyPIP			PinkyTip			BackHand1			BackHand2			BackHand3	
		X0	Y0	Z0	X1	Y1	Z1	X2	Y2	Z2	X3	Y3	Z3	X4	Y4	Z4	X5	Y5	Z5	X6	Y6	Z6	X7	Y7	Z7	X8	Y8	Z8	X9	Y9	Z9	X10	Y10	Z10	X11	Y11	Z11	X12	Y12	Z12	X13	Y13	Z13	X14	Y14	Z14	X15	Y15	Z15	X16	Y16	Z16	X17	Y17	Z17	X18	Y18	Z18	
0	0	-156.586	-32.7129	19.1884	-138.832	-43.3003	-4.37247	-123.886	-52.0197	-30.6981	-122.917	-64.0231	-56.4589	-172.461	-23.0936	-59.2599	-162.542	-34.6142	-85.5646	-154.997	-62.4972	-103.585	-195.405	-19.7661	-65.345	-193.368	-25.8154	-95.8567	-189.045	-47.538	-122.504	-212.871	-28.2628	-60.4627	-214.762	-31.9542	-84.0932	-214.495	-47.0841	-109.169	-233.363	-41.4439	-45.8495	-235.056	-46.0514	-65.4522	-231.576	-54.9095	-89.8337	-218.106	-18.1468	-9.83605	-221.607	-17.9979	24.8349	-188.257	-10.956	7.03397	
1	0.00833333	-158.583	-32.8681	16.5236	-138.186	-41.6053	-5.61612	-129.157	-51.519	-30.6743	-123.599	-63.941	-55.2142	-173.654	-22.9435	-61.2471	-164.63	-36.6411	-89.7848	-157.918	-63.6211	-103.879	-195.37	-19.5434	-68.4626	-193.364	-24.5166	-93.982	-190.146	-46.5244	-123.451	-218.368	-28.6475	-59.0872	-214.927	-32.1764	-84.7013	-214.989	-48.3827	-114.239	-231.95	-41.6416	-42.27	-236.338	-46.7387	-70.7981	-237.01	-53.4301	-89.8852	-220.864	-19.7328	-6.77263	-221.424	-16.4844	21.5504	-187.879	-11.4498	4.71154	
2	0.0166667	-159.168	-33.5361	18.0983	-140.03	-41.7949	-2.95834	-125.368	-51.944	-33.5262	-123.542	-62.7638	-50.398	-168.676	-23.5617	-64.7054	-165.267	-35.9243	-88.1669	-154.559	-59.9123	-102.305	-198.364	-19.8923	-65.5293	-194.067	-25.2823	-95.2342	-187.905	-43.8772	-122.946	-214.004	-28.2644	-57.3084	-215.926	-34.0158	-88.9815	-217.278	-47.6262	-113.538	-234.255	-41.0382	-43.8685	-238.012	-46.6798	-68.5208	-236.869	-54.2272	-89.3807	-222.036	-19.5306	-7.75818	-220.928	-18.3277	20.8485	-189.917	-12.4071	7.03397	
3	0.025	-155.786	-32.2194	13.4369	-140.331	-41.7484	-5.89959	-125.955	-51.4362	-30.9776	-120.356	-62.4977	-48.5933	-171.347	-24.427	-64.5877	-160.43	-37.8083	-90.8666	-159.846	-60.0176	-102.461	-196.052	-19.8926	-64.4658	-194.216	-25.8746	-97.4976	-190.592	-43.9671	-124.079	-214.059	-27.9548	-60.2279	-217.515	-33.3062	-87.8882	-216.682	-43.3192	-109.776	-230.214	-41.1461	-42.3657	-235.28	-43.4518	-67.9566	-239.848	-50.422	-89.8812	-220.052	-20.2629	-11.0529	-224.762	-18.6253	19.2155	-188.492	-11.7072	3.6049	
4	0.0333333	-160.254	-33.2903	16.7968	-138.668	-41.2887	-7.37851	-122.495	-50.9081	-29.1614	-116.93	-62.3837	-50.2561	-169.005	-22.6672	-61.2936	-162.522	-33.9112	-87.7194	-154.872	-58.0169	-103.416	-194.105	-18.0509	-69.9353	-191.41	-25.9893	-99.2098	-188.607	-40.1833	-123.55	-218.823	-30.0479	-59.3752	-216.851	-32.5921	-89.1162	-218.969	-44.9848	-113.505	-236.038	-41.914	-44.6716	-235.077	-43.2529	-65.9773	-241.613	-49.2495	-89.5534	-221.274	-18.8849	-10.3387	-219.349	-16.7783	17.9727	-189.181	-12.7893	3.44487	
5	0.0416667	-159.51	-32.6184	12.9548	-139.386	-40.4156	-5.98209	-124.336	-50.0673	-32.0093	-115.599	-61.8917	-50.3782	-168.303	-22.6703	-59.8387	-164.389	-36.7919	-90.2158	-154.948	-56.6417	-103.773	-198.154	-20.3844	-68.9786	-192.672	-24.2887	-96.4083	-191.709	-39.6085	-124.504	-219.938	-30.4304	-59.2021	-220.694	-33.4311	-88.1487	-222.034	-42.6028	-110.481	-234.564	-41.0399	-43.7192	-236.683	-43.3556	-63.4745	-243.466	-50.3748	-87.5992	-218.339	-19.0826	-6.68879	-221.937	-18.5713	20.0949	-186.413	-12.3433	4.95314	
6	0.05	-157.151	-31.8591	13.6393	-136.588	-40.6878	-6.13162	-124.711	-51.729	-26.6445	-116.797	-61.796	-47.6986	-171.203	-24.7072	-65.1565	-160.615	-34.4672	-86.3088	-156.342	-56.5775	-104.471	-198.891	-20.6231	-69.5687	-192.514	-23.3578	-93.9399	-189.83	-36.7098	-126.943	-215.529	-29.5609	-57.0975	-220.006	-32.3822	-85.0079	-219.768	-40.0178	-114.449	-237.372	-42.0736	-43.7329	-240.733	-44.5212	-68.4236	-245.84	-48.9466	-88.6005	-216.91	-20.982	-6.56468	-223.489	-18.6737	21.5818	-189.978	-11.4782	6.06439	
7	0.0583333	-158.239	-31.6536	18.3088	-137.908	-41.4316	-2.85586	-120.522	-50.5514	-29.5899	-112.192	-61.7682	-46.9088	-169.836	-23.6936	-63.8945	-158.433	-37.4055	-89.564	-156.012	-56.1147	-105.039	-197.11	-20.1788	-69.2818	-193.461	-23.4399	-94.674	-186.242	-35.3791	-129.164	-215.824	-28.8493	-58.4845	-222.785	-32.6076	-85.3045	-222.971	-39.0912	-110.555	-238.143	-40.7918	-45.9294	-240.862	-43.8637	-64.5343	-247.506	-48.8204	-90.7091	-222.623	-21.5041	-6.91145	-223.759	-18.6091	19.3791	-187.594	-9.9763	5.00531	
8	0.0666667	-158.375	-32.9161	15.2258	-138.828	-42.5435	-5.84207	-124.993	-52.0929	-28.0994	-115.001	-63.0675	-50.2827	-169.656	-23.1788	-61.547	-158.827	-37.4131	-90.2982	-149.438	-60.0471	-105.484	-196.996	-18.9783	-65.6905	-196.258	-22.7457	-98.0295	-189.667	-31.7958	-126.798	-218.317	-28.2155	-59.9465	-222.793	-30.6811	-84.705	-220.675	-36.5331	-113.234	-238.29	-41.7458	-41.1744	-242.006	-43.03	-62.9087	-250.682	-46.6896	-87.5714	-220.013	-21.4222	-8.62232	-224.455	-19.7252	22.3442	-189.224	-12.7416	5.99023	
9	0.075	-160.837	-33.182	16.8039	-135.332	-42.6991	-4.52362	-120.455	-51.9977	-25.5577	-117.698	-64.6435	-46.2208	-167.675	-23.4284	-62.1424	-160.903	-34.7781	-86.548	-152.17	-58.1177	-104.086	-195.274	-17.2984	-67.6083	-191.878	-19.5014	-95.3819	-188.343	-29.1638	-125.05	-215.417	-26.108	-60.8564	-223.914	-28.921	-82.7644	-222.666	-35.1968	-111.078	-233.87	-40.5867	-40.9407	-244.128	-42.7524	-65.0349	-249.892	-45.2111	-86.1934	-222.913	-21.0345	-7.90615	-224.439	-18.4935	18.3889	-188.553	-11.7517	7.05187	
10	0.0833333	-159.112	-31.6329	15.0727	-138.12	-42.2389	-4.20359	-123.002	-52.9484	-27.8828	-116.123	-64.8718	-49.3119	-169.643	-24.0886	-63.2443	-157.328	-36.2434	-85.8515	-151.618	-62.439	-102.206	-196.274	-16.8647	-69.2059	-191.998	-19.4625	-94.177	-190.672	-29.0596	-124.864	-221.297	-28.5402	-58.8324	-223.113	-28.4663	-83.3385	-221.917	-33.4621	-112.836	-234.077	-40.9067	-41.7548	-243.554	-41.965	-64.8266	-249.794	-45.1664	-85.8551	-223.232	-21.1959	-7.72672	-224.291	-19.8095	17.2769	-191.556	-10.9632	5.93766	
11	0.0916667	-163.033	-33.129	17.4026	-136.339	-41.7272	-2.87742	-122.541	-51.8953	-27.4687	-121.248	-63.963	-48.3721	-167.937	-23.0419	-63.1625	-156.411	-38.58	-86.7132	-151.579	-61.4851	-97.6858	-196.268	-16.5058	-66.2118	-193.704	-18.7944	-96.3188	-187.734	-28.4272	-128.302	-219.477	-27.8015	-57.1404	-219.24	-27.224	-83.1181	-222.949	-32.795	-109.549	-233.788	-38.4958	-47.0257	-240.578	-41.5049	-63.4727	-251.521	-44.6574	-87.7534	-223.64	-19.2647	-9.62395	-227.404	-19.3548	19.2304	-188.73	-11.6759	4.68265	
12	0.1	-162.812	-31.2575	13.0838	-142.091	-42.3763	-5.55226	-123.514	-52.2867	-29.1122	-120.216	-63.2156	-51.2801	-166.158	-21.8687	-63.848	-153.84	-38.1518	-84.9591	-149.892	-62.985	-93.3274	-193.381	-13.9991	-67.96	-191.572	-17.419	-97.5805	-187.479	-25.7503	-124.654	-220.026	-25.2122	-59.0271	-216.595	-24.4781	-86.8143	-219.485	-30.798	-111.841	-235.718	-39.227	-43.3529	-240.929	-40.2051	-63.7264	-248.001	-41.1347	-90.1778	-218.5	-19.0097	-10.8985	-224.408	-19.1353	21.5635	-190.609	-11.6015	7.39035	
13	0.108333	-161.148	-32.2586	16.8361	-138.151	-40.9586	-7.73854	-125.658	-50.057	-33.8667	-125.404	-62.3562	-56.2312	-170.647	-19.5173	-61.2025	-157.222	-35.6103	-84.035	-150.965	-68.3725	-89.3664	-194.355	-10.9015	-69.6261	-188.64	-14.4268	-96.8022	-183.287	-23.071	-123.733	-216.49	-21.2409	-61.3042	-217.181	-22.1257	-83.5026	-216.543	-27.1569	-110.656	-232.539	-33.7551	-48.3886	-240.341	-37.5247	-70.5545	-243.49	-38.4249	-91.5932	-219.23	-17.8976	-10.5465	-224.408	-16.9112	19.4571	-191.028	-8.30775	10.1691	
14	0.116667	-159.434	-30.1758	16.2101	-139.708	-39.7858	-5.89617	-127.142	-48.7387	-33.6489	-130.795	-59.044	-57.2348	-169.849	-18.0749	-63.5281	-158.568	-36.7889	-83.663	-152.243	-67.7737	-83.9773	-192.496	-8.9136	-65.7898	-186.665	-11.8708	-94.7379	-182.177	-23.7934	-128.09	-214.993	-18.4047	-60.1779	-215.763	-18.7765	-85.9387	-213.254	-24.1273	-110.117	-235.678	-32.8262	-48.7621	-239.339	-34.3888	-66.7004	-243.704	-36.13	-94.5416	-223.274	-16.3308	-7.17228	-222.771	-18.7989	19.3407	-191.731	-8.00522	8.25489	
